<svg width="107" height="15" viewBox="0 0 107 15" fill="none" xmlns="http://www.w3.org/2000/svg">
<path id="UIDesignDaily" fill-rule="evenodd" clip-rule="evenodd" d="M4.76124 11.5923C3.19545 11.5923 2.01048 11.2007 1.20629 10.4175C0.402092 9.63433 0 8.48549 0 6.97095V0.373444H2.02912V7.07988C2.02912 8.03424 2.25812 8.75778 2.71614 9.25052C3.17416 9.74326 3.85585 9.98963 4.76124 9.98963C5.64532 9.98963 6.31902 9.74067 6.78237 9.24274C7.24571 8.74481 7.47738 8.02386 7.47738 7.07988V0.373444H9.5065V6.97095C9.5065 8.47511 9.10174 9.62137 8.29222 10.4098C7.4827 11.1981 6.30572 11.5923 4.76124 11.5923ZM11.8871 11.4523V0.373444H13.9482V11.4523H11.8871ZM16.4087 0.373444H20.5947C22.4588 0.373444 23.9047 0.855804 24.9326 1.82054C25.9605 2.78527 26.4744 4.14418 26.4744 5.8973C26.4744 7.6608 25.9605 9.02748 24.9326 9.99741C23.9047 10.9673 22.4588 11.4523 20.5947 11.4523H16.4087V0.373444ZM20.4669 9.81847C23.0872 9.81847 24.3973 8.51142 24.3973 5.8973C24.3973 3.30393 23.0872 2.00726 20.4669 2.00726H18.4698V9.81847H20.4669ZM35.5016 7.62448H29.9415C29.9841 8.46473 30.1998 9.08454 30.5885 9.48392C30.9773 9.8833 31.5552 10.083 32.3221 10.083C33.2062 10.083 34.0263 9.80291 34.7826 9.24274L35.3578 10.5809C34.9743 10.8817 34.503 11.1229 33.9438 11.3045C33.3846 11.486 32.8174 11.5768 32.2422 11.5768C30.9214 11.5768 29.8829 11.2137 29.1266 10.4876C28.3704 9.76141 27.9922 8.76557 27.9922 7.5C27.9922 6.70124 28.1573 5.99067 28.4875 5.36826C28.8177 4.74585 29.2811 4.26089 29.8776 3.91338C30.474 3.56587 31.1504 3.39212 31.9067 3.39212C33.0144 3.39212 33.8905 3.74222 34.5349 4.44243C35.1794 5.14264 35.5016 6.10477 35.5016 7.32884V7.62448ZM31.9546 4.79253C31.422 4.79253 30.988 4.94554 30.6525 5.25156C30.3169 5.55757 30.1012 6.00103 30.0054 6.58195H33.76C33.6961 5.99066 33.5124 5.54461 33.2088 5.24378C32.9053 4.94294 32.4872 4.79253 31.9546 4.79253ZM40.151 11.5768C38.6917 11.5768 37.5307 11.2448 36.6679 10.5809L37.2271 9.21162C38.0899 9.83403 39.0752 10.1452 40.1829 10.1452C40.6622 10.1452 41.0324 10.0674 41.2933 9.91183C41.5543 9.75622 41.6848 9.53838 41.6848 9.2583C41.6848 9.01971 41.5942 8.83039 41.4132 8.69035C41.2321 8.55031 40.9232 8.42842 40.4865 8.32469L39.1444 8.02905C37.6745 7.71784 36.9395 6.98652 36.9395 5.83506C36.9395 5.35788 37.078 4.93517 37.3549 4.56691C37.6319 4.19865 38.0207 3.91079 38.5213 3.70332C39.0219 3.49585 39.6024 3.39212 40.2628 3.39212C40.838 3.39212 41.3919 3.4777 41.9244 3.64886C42.457 3.82002 42.9257 4.06639 43.3304 4.38797L42.7393 5.71058C41.9298 5.12966 41.099 4.83921 40.2468 4.83921C39.7888 4.83921 39.432 4.9222 39.1763 5.08817C38.9207 5.25415 38.7929 5.48236 38.7929 5.77282C38.7929 6.00104 38.8701 6.18257 39.0246 6.31743C39.179 6.45228 39.4426 6.56639 39.8154 6.65975L41.1895 6.95539C41.9884 7.13174 42.5715 7.40404 42.939 7.7723C43.3065 8.14056 43.4902 8.62033 43.4902 9.21162C43.4902 9.93776 43.192 10.5135 42.5955 10.9388C41.999 11.3641 41.1842 11.5768 40.151 11.5768ZM45.1998 11.4523V3.5944H47.181V11.4523H45.1998ZM45.072 0.0311203H47.2928V1.94502H45.072V0.0311203ZM57.1668 3.5944V11.2033C57.1668 12.4274 56.8206 13.3558 56.1283 13.9886C55.4359 14.6214 54.4187 14.9378 53.0766 14.9378C51.8304 14.9378 50.7333 14.6836 49.7853 14.1753L50.1048 12.6971C51.0848 13.195 52.0594 13.444 53.0287 13.444C54.4666 13.444 55.1856 12.749 55.1856 11.3589V9.8029C54.9406 10.2282 54.5838 10.5731 54.1151 10.8377C53.6465 11.1022 53.1192 11.2344 52.5334 11.2344C51.8304 11.2344 51.2046 11.0711 50.656 10.7443C50.1075 10.4175 49.6814 9.95592 49.3779 9.35944C49.0743 8.76296 48.9225 8.08092 48.9225 7.31328C48.9225 6.54564 49.0743 5.86359 49.3779 5.26712C49.6814 4.67064 50.1075 4.20903 50.656 3.88226C51.2046 3.5555 51.8304 3.39212 52.5334 3.39212C53.1299 3.39212 53.6598 3.514 54.1231 3.75778C54.5865 4.00156 54.9406 4.34128 55.1856 4.77697V3.5944H57.1668ZM53.0606 9.70954C53.721 9.70954 54.2403 9.49689 54.6184 9.07158C54.9965 8.64626 55.1856 8.06017 55.1856 7.31328C55.1856 6.56639 54.9992 5.98029 54.6264 5.55498C54.2536 5.12967 53.7317 4.91701 53.0606 4.91701C52.4002 4.91701 51.881 5.12967 51.5028 5.55498C51.1247 5.98029 50.9356 6.56639 50.9356 7.31328C50.9356 8.06017 51.1247 8.64626 51.5028 9.07158C51.881 9.49689 52.4002 9.70954 53.0606 9.70954ZM63.9412 3.39212C65.8691 3.39212 66.8331 4.47094 66.8331 6.62863V11.4523H64.8359V6.72199C64.8359 6.09958 64.7134 5.64575 64.4684 5.36048C64.2234 5.07521 63.8453 4.93257 63.334 4.93257C62.7269 4.93257 62.2369 5.12189 61.8641 5.50052C61.4913 5.87915 61.3049 6.37966 61.3049 7.00207V11.4523H59.3237V5.8195C59.3237 4.98962 59.2811 4.24793 59.1959 3.5944H61.0653L61.209 4.88589C61.486 4.40871 61.8615 4.04046 62.3354 3.78112C62.8094 3.52178 63.3447 3.39212 63.9412 3.39212ZM69.1018 0.373444H73.2879C75.1519 0.373444 76.5978 0.855804 77.6257 1.82054C78.6536 2.78527 79.1675 4.14418 79.1675 5.8973C79.1675 7.6608 78.6536 9.02748 77.6257 9.99741C76.5978 10.9673 75.1519 11.4523 73.2879 11.4523H69.1018V0.373444ZM73.1601 9.81847C75.7804 9.81847 77.0905 8.51142 77.0905 5.8973C77.0905 3.30393 75.7804 2.00726 73.1601 2.00726H71.1629V9.81847H73.1601ZM88.8498 3.5944V11.4523H86.8846V10.1919C86.6396 10.6276 86.2881 10.9673 85.8301 11.2111C85.3721 11.4549 84.8501 11.5768 84.2643 11.5768C83.5613 11.5768 82.9382 11.4108 82.395 11.0788C81.8517 10.7469 81.431 10.2749 81.1327 9.66286C80.8345 9.05083 80.6854 8.34025 80.6854 7.53112C80.6854 6.72199 80.8372 6.00363 81.1407 5.37604C81.4443 4.74844 81.8677 4.26089 82.4109 3.91338C82.9542 3.56587 83.5719 3.39212 84.2643 3.39212C84.8501 3.39212 85.3721 3.514 85.8301 3.75778C86.2881 4.00156 86.6396 4.34128 86.8846 4.77697V3.5944H88.8498ZM84.8075 10.0519C85.4679 10.0519 85.9792 9.82884 86.3413 9.38278C86.7035 8.93672 86.8846 8.30913 86.8846 7.5C86.8846 6.67012 86.7035 6.03216 86.3413 5.5861C85.9792 5.14004 85.4626 4.91701 84.7915 4.91701C84.1311 4.91701 83.6172 5.14782 83.2497 5.60944C82.8823 6.07106 82.6985 6.71161 82.6985 7.53112C82.6985 8.34025 82.8823 8.96265 83.2497 9.39834C83.6172 9.83403 84.1365 10.0519 84.8075 10.0519ZM91.0227 11.4523V3.5944H93.0039V11.4523H91.0227ZM90.8949 0.0311203H93.1157V1.94502H90.8949V0.0311203ZM95.1928 11.4523V0H97.174V11.4523H95.1928ZM107 3.5944L103.245 11.9813C102.819 12.9564 102.276 13.667 101.616 14.1131C100.955 14.5591 100.14 14.8548 99.1711 15L98.7238 13.5062C99.48 13.3402 100.047 13.1302 100.425 12.876C100.803 12.6219 101.11 12.2459 101.344 11.7479L101.6 11.1722L98.2444 3.5944H100.337L102.654 9.24274L105.019 3.5944H107Z" fill="#F7F7FC"/>
</svg>
