<svg width="15" height="15" viewBox="0 0 15 15" fill="none" xmlns="http://www.w3.org/2000/svg">
<path d="M7.49996 1.20535C8.01425 1.20531 8.50897 1.4025 8.88221 1.7563C9.25545 2.11011 9.47879 2.59359 9.50622 3.10714L9.50889 3.21428H12.4553C12.5571 3.21431 12.6551 3.25298 12.7295 3.32248C12.8039 3.39198 12.8491 3.48712 12.8561 3.58868C12.863 3.69024 12.8311 3.79065 12.7669 3.86962C12.7026 3.94859 12.6108 4.00023 12.51 4.0141L12.4553 4.01785H11.888L11.2344 12.082C11.1936 12.585 10.965 13.0543 10.5939 13.3965C10.2229 13.7386 9.73666 13.9286 9.23193 13.9286H5.768C5.26327 13.9286 4.77703 13.7386 4.40598 13.3965C4.03494 13.0543 3.80628 12.585 3.7655 12.082L3.11139 4.01785H2.54461C2.44752 4.01785 2.35371 3.98269 2.28054 3.91887C2.20737 3.85505 2.15978 3.7669 2.14657 3.67071L2.14282 3.61607C2.14283 3.51898 2.17799 3.42517 2.2418 3.352C2.30562 3.27882 2.39378 3.23124 2.48996 3.21803L2.54461 3.21428H5.49104C5.49104 2.68148 5.70269 2.1705 6.07944 1.79375C6.45619 1.41701 6.96716 1.20535 7.49996 1.20535V1.20535ZM11.0823 4.01785H3.91764L4.56639 12.0171C4.59089 12.319 4.72811 12.6005 4.95076 12.8058C5.1734 13.0111 5.46516 13.125 5.768 13.125H9.23193C9.53477 13.125 9.82653 13.0111 10.0492 12.8058C10.2718 12.6005 10.409 12.319 10.4335 12.0171L11.0818 4.01785H11.0823ZM6.29461 6.02678C6.3917 6.02679 6.48551 6.06195 6.55868 6.12576C6.63185 6.18958 6.67944 6.27773 6.69264 6.37392L6.69639 6.42857V10.7143C6.69636 10.8161 6.65769 10.9141 6.58819 10.9885C6.5187 11.0628 6.42356 11.1081 6.32199 11.115C6.22043 11.1219 6.12002 11.0901 6.04105 11.0258C5.96209 10.9616 5.91045 10.8698 5.89657 10.7689L5.89282 10.7143V6.42857C5.89282 6.32201 5.93515 6.21981 6.0105 6.14446C6.08585 6.06911 6.18805 6.02678 6.29461 6.02678V6.02678ZM8.70532 6.02678C8.80241 6.02679 8.89622 6.06195 8.96939 6.12576C9.04256 6.18958 9.09015 6.27773 9.10336 6.37392L9.10711 6.42857V10.7143C9.10708 10.8161 9.06841 10.9141 8.99891 10.9885C8.92941 11.0628 8.83427 11.1081 8.73271 11.115C8.63115 11.1219 8.53074 11.0901 8.45177 11.0258C8.3728 10.9616 8.32116 10.8698 8.30729 10.7689L8.30354 10.7143V6.42857C8.30354 6.32201 8.34587 6.21981 8.42122 6.14446C8.49657 6.06911 8.59876 6.02678 8.70532 6.02678ZM7.49996 2.00892C7.19454 2.00889 6.90049 2.1248 6.67724 2.33323C6.45399 2.54166 6.31819 2.82707 6.29729 3.13178L6.29461 3.21428H8.70532L8.70264 3.13178C8.68174 2.82707 8.54594 2.54166 8.32269 2.33323C8.09944 2.1248 7.80539 2.00889 7.49996 2.00892V2.00892Z" fill="#3B3B71"/>
</svg>
